<svg id="Layer_1" data-name="Layer 1" xmlns="http://www.w3.org/2000/svg" width="100%" height="auto" viewBox="0 0 512 512"><title>Content</title><circle cx="255.99749" cy="255.99749" r="255.99749" fill="#ffd630"/><path d="M512,257.41838C511.21151,397.08328,398.66027,510.266,259.31053,512l-125.4782-125.4782L396.29581,141.71418Z" fill="#f5be18"/><polygon points="321.98 132.356 379.015 186.532 230.913 342.003 173.877 287.829 321.98 132.356" fill="#e84f4f"/><path d="M350.42359,159.369l28.68965,27.27078L230.93608,342.06845l-28.68965-27.27078Z" fill="#c94545"/><path d="M173.872,287.84209l57.06411,54.22635L173.872,367.29l-22.22667-21.123,22.38377-58.16777Z" fill="#fff094"/><path d="M202.24642,314.79767l28.68965,27.27078L173.872,367.29l-11.19188-10.71961,39.72444-41.77372h-.15809Z" fill="#f0dd85"/><path d="M366.50249,113.49783l29.79332,28.21636c7.72375,7.25146,6.14779,21.43819-3.31005,31.36931l-13.084,13.71443-.15809.1581-57.53741-54.69965.15809-.1581,13.084-13.71444c9.45781-9.93111,23.64556-12.29557,31.2122-4.887h-.15806Z" fill="#00cc96"/><path d="M381.32059,127.36936l14.97522,14.34482c7.72375,7.25146,6.14779,21.43819-3.31005,31.36931l-13.084,13.71443-.15809.1581-29.00484-27.42888Z" fill="#12b589"/><path d="M173.872,367.291l-39.88153,19.38894L151.6453,346.168Z" fill="#9d9e9e"/><path d="M173.872,367.291l-39.88153,19.38894,28.68965-30.10852Z" fill="#727271"/></svg>