<svg id="Layer_1" data-name="Layer 1" xmlns="http://www.w3.org/2000/svg" width="100%" height="auto" viewBox="0 0 512 512"><title>Custom EMail</title><circle cx="256" cy="256" r="256" fill="#2ac7f6"/><path d="M95.76,399.04,203.256,506.536A257.39568,257.39568,0,0,0,256,512c141.384,0,256-114.616,256-256,0-6.432-.32-12.792-.784-19.104L387.28,112.96Z" fill="#009fdd"/><polygon points="95.76 209.76 256 304.4 95.76 399.04 95.76 209.76" fill="#6b6b6b"/><polygon points="416.16 399.04 256 304.4 416.16 209.76 416.16 399.04" fill="#6b6b6b"/><polygon points="95.76 399.04 416.16 399.04 256 304.4 95.76 399.04"/><polygon points="124.72 113.04 124.72 226.56 256.08 304.56 387.28 226.96 387.28 112.96 124.72 113.04" fill="#fff"/><polygon points="95.76 209.76 124.64 187.92 124.64 226.8 95.76 209.76"/><polygon points="416.24 209.76 387.36 187.92 387.36 226.8 416.24 209.76"/><path d="M286.56,257.12a67.84325,67.84325,0,0,1-33.2,7.44,55.52449,55.52449,0,0,1-56.536-54.488c-.024-1.224-.008-2.448.056-3.672,0-38.4,26.64-71.6,68-71.6a51.76312,51.76312,0,0,1,54.224,49.176c.072,1.552.08,3.112.016,4.664,0,27.92-16,44.4-33.2,44.4a13.75255,13.75255,0,0,1-13.76-16h-.72a29.27757,29.27757,0,0,1-26.24,16,21.11927,21.11927,0,0,1-20.28-21.928c.024-.536.064-1.064.12-1.592a43.99586,43.99586,0,0,1,43.84-44.16h.32a49.09941,49.09941,0,0,1,19.92,3.92l-6.32,33.76C280,217.2,282.24,224,288,224c9.52,0,20.16-12.48,20.16-34.08,0-27.04-16-46.4-45.12-46.4-30.4,0-56,24-56,61.92,0,31.12,20.32,50.32,48,50.32a58.2168,58.2168,0,0,0,28.16-6.56Zm-10.32-80.48a30.31568,30.31568,0,0,0-38.96,32c0,8,4.08,14.16,12.32,14.16,10.8,0,20.72-13.84,22.72-25.36Z" fill="#009fdd"/></svg>