<svg id="Layer_1" data-name="Layer 1" xmlns="http://www.w3.org/2000/svg" width="100%" height="auto" viewBox="0 0 512 512"><title>Domain</title><circle cx="255.99749" cy="255.99749" r="255.99749" fill="#e84f4f"/><path d="M128.31695,419.83129l89.42,89.42a254.83661,254.83661,0,0,0,38.26254,2.74769c135.7155,0,246.69876-105.48589,255.57723-239.0881L383.89417,145.22835Z" fill="#c94545"/><path d="M128.31695,92.37983H329.988l53.90618,53.06064V420.04339H128.317V92.37983Z" fill="#f7f7f8"/><path d="M329.988,92.37983l53.90618,53.06064-53.90615.21113V92.37983Z" fill="#ccc"/><path d="M161.71749,146.91938h29.5952v34.24606h-29.5952Zm0,183.91416h29.5952v34.24608h-29.5952Zm0-61.30471h29.5952V303.7749h-29.5952Zm0-61.30473h29.5952v34.24606h-29.5952Z" fill="#12b589"/><path d="M211.32129,172.541a3.38882,3.38882,0,0,1,2.34082.82959,2.90866,2.90866,0,0,1,0,4.26514,3.68669,3.68669,0,0,1-4.68848-.00781,2.90742,2.90742,0,0,1,0-4.24951A3.36345,3.36345,0,0,1,211.32129,172.541Z" fill="#e84f4f"/><path d="M225.39258,176h-6.167V150.40869h6.167Z" fill="#e84f4f"/><path d="M239.18164,166.96875h-3.334V176h-6.167V150.40869h10.06445a11.24924,11.24924,0,0,1,7.12207,2.019,6.84945,6.84945,0,0,1,2.56738,5.71289,8.318,8.318,0,0,1-1.08008,4.42969,7.71955,7.71955,0,0,1-3.38086,2.84863l5.33691,10.31494V176h-6.60547Zm-3.334-4.77393h3.89746a3.51516,3.51516,0,0,0,2.64551-.92334,3.55329,3.55329,0,0,0,.89258-2.5752,3.59137,3.59137,0,0,0-.90039-2.59033,3.48777,3.48777,0,0,0-2.6377-.939h-3.89746Z" fill="#e84f4f"/><path d="M211.32178,234.541a3.38632,3.38632,0,0,1,2.33984.82959,2.90659,2.90659,0,0,1,0,4.26514,3.68533,3.68533,0,0,1-4.6875-.00781,2.90532,2.90532,0,0,1,0-4.24951A3.361,3.361,0,0,1,211.32178,234.541Z" fill="#e84f4f"/><path d="M239.51074,229.32861a9.24319,9.24319,0,0,1-1.43213,4.72705,8.68192,8.68192,0,0,1-3.70166,3.16943,12.65456,12.65456,0,0,1-5.44678,1.11914,10.05366,10.05366,0,0,1-7.94336-3.28662q-2.90405-3.28711-2.90381-9.28174v-1.25244a15.43875,15.43875,0,0,1,1.31494-6.58936,9.98963,9.98963,0,0,1,3.772-4.35937,10.49407,10.49407,0,0,1,5.69775-1.5415,11.00871,11.00871,0,0,1,7.48926,2.457,9.7347,9.7347,0,0,1,3.2168,6.76172h-6.15137a4.6272,4.6272,0,0,0-1.18164-3.36523,4.84192,4.84192,0,0,0-3.373-1.01709,3.68308,3.68308,0,0,0-3.373,1.72168,11.14392,11.14392,0,0,0-1.13477,5.50977v1.7998q0,4.10083,1.03271,5.86182a3.7635,3.7635,0,0,0,3.5376,1.76074,4.74973,4.74973,0,0,0,3.25537-1.00146,4.28711,4.28711,0,0,0,1.20557-3.19336Z" fill="#e84f4f"/><path d="M264.10059,225.72852a15.15864,15.15864,0,0,1-1.38477,6.62891,10.19359,10.19359,0,0,1-3.94531,4.4375,11.84165,11.84165,0,0,1-11.62891.04688,10.26225,10.26225,0,0,1-3.94434-4.29639,14.69923,14.69923,0,0,1-1.49512-6.40967V224.6958a15.13185,15.13185,0,0,1,1.38574-6.63672,10.26816,10.26816,0,0,1,3.96-4.44531,11.05947,11.05947,0,0,1,5.86133-1.56494,10.92421,10.92421,0,0,1,5.79883,1.54932,10.45887,10.45887,0,0,1,3.96,4.40625,14.70389,14.70389,0,0,1,1.43262,6.55029Zm-6.27637-1.064a10.78777,10.78777,0,0,0-1.27539-5.79932,4.083,4.083,0,0,0-3.63965-1.98q-4.64795,0-4.89941,6.96533l-.03125,1.87793a11.05544,11.05544,0,0,0,1.25293,5.78369,4.08273,4.08273,0,0,0,3.709,2.02686,4.03374,4.03374,0,0,0,3.60059-1.98779,10.75336,10.75336,0,0,0,1.2832-5.71289Z" fill="#e84f4f"/><path d="M275.38574,212.40869l5.71289,17.79639,5.69727-17.79639h8.124V238H288.7373v-5.979l.59473-12.22461L283.14941,238h-4.08594l-6.19824-18.23486L273.46,232.021V238h-6.167V212.40869Z" fill="#e84f4f"/><path d="M211.32178,294.541a3.38829,3.38829,0,0,1,2.33984.8291,2.90715,2.90715,0,0,1,0,4.26563,3.687,3.687,0,0,1-4.6875-.00781,2.90588,2.90588,0,0,1,0-4.25A3.36287,3.36287,0,0,1,211.32178,294.541Z" fill="#e84f4f"/><path d="M240.18359,298h-6.13477l-9.063-15.918V298h-6.167V272.40918h6.167l9.04639,15.918v-15.918h6.15137Z" fill="#e84f4f"/><path d="M259.96875,287.15332h-9.70508v6.10449h11.458V298h-17.625V272.40918h17.65625V277.167H250.26367v5.40039h9.70508Z" fill="#e84f4f"/><path d="M284.32227,277.167h-7.68555V298h-6.166V277.167h-7.54492v-4.75781h21.39648Z" fill="#e84f4f"/><path d="M211.32129,355.541a3.39079,3.39079,0,0,1,2.34082.8291,2.90922,2.90922,0,0,1,0,4.26563,3.68834,3.68834,0,0,1-4.68848-.00781,2.908,2.908,0,0,1,0-4.25A3.36538,3.36538,0,0,1,211.32129,355.541Z" fill="#e84f4f"/><path d="M225.39258,359h-6.167V333.40918h6.167Z" fill="#e84f4f"/><path d="M251.0459,359h-6.13477l-9.06348-15.918V359h-6.167V333.40918h6.167l9.04688,15.918v-15.918h6.15137Z" fill="#e84f4f"/><path d="M271.06543,348.81055H261.126V359h-6.167V333.40918h17.1084V338.167H261.126v5.88477h9.93945Z" fill="#e84f4f"/><path d="M296.31152,346.72852a15.15713,15.15713,0,0,1-1.38477,6.62891,10.19629,10.19629,0,0,1-3.94531,4.4375,11.83835,11.83835,0,0,1-11.62891.04688,10.25777,10.25777,0,0,1-3.94434-4.29687,14.69539,14.69539,0,0,1-1.49512-6.40918v-1.44043a15.129,15.129,0,0,1,1.38574-6.63574,10.2627,10.2627,0,0,1,3.96-4.44531,11.05094,11.05094,0,0,1,5.86133-1.56543,10.92011,10.92011,0,0,1,5.79883,1.5498,10.45622,10.45622,0,0,1,3.96,4.40527,14.70754,14.70754,0,0,1,1.43262,6.55078Zm-6.27637-1.06445a10.78588,10.78588,0,0,0-1.27539-5.79883,4.0824,4.0824,0,0,0-3.63965-1.98047q-4.64795,0-4.89941,6.96582l-.03125,1.87793a11.05112,11.05112,0,0,0,1.25293,5.7832,4.08314,4.08314,0,0,0,3.709,2.02734,4.0333,4.0333,0,0,0,3.60059-1.9873,10.75479,10.75479,0,0,0,1.2832-5.71387Z" fill="#e84f4f"/></svg>