<svg id="Layer_1" data-name="Layer 1" xmlns="http://www.w3.org/2000/svg" width="100%" height="auto" viewBox="0 0 512 512"><title>Idea</title><circle cx="255.99999" cy="255.99999" r="255.99999" fill="#273b7a"/><path d="M381.37449,125.45207,343.98986,162.8367,261.00967,80.60983l.52751,13.38268-4.36837-4.36838L256.2879,140.469l53.24282,53.24283-43.78719,56.551L170.29087,155.367l-7.57139,11.91219,85.58846,85.58846,6.11642,5.00276L240.0556,243.50165l-63.24321,7.82826-17.92345-16.7874L157.877,243.4189,102.0035,245.348,257.6084,401.15456l-22.8383,15.991,86.459,86.45907C430.99365,474.76535,511.96548,374.88572,512.00172,256.0793Z" fill="#121149"/><path d="M341.33333,240.70033a85.33618,85.33618,0,0,0-88.76218-85.2661c-43.62516,1.70839-79.35656,36.82263-81.77,80.4133a85.08341,85.08341,0,0,0,25.51207,65.82218c19.63012,19.20775,31.24234,25.34485,31.24234,52.8084v8.654h56.88889V355.0763c0-27.167,10.54858-33.773,30.26315-52.46362A85.05356,85.05356,0,0,0,341.33333,240.70033Z" fill="#ffc61b"/><path d="M256.2879,155.38424V363.13041h28.15654v-8.05408c0-27.167,10.54858-33.773,30.26315-52.46362A85.31,85.31,0,0,0,256.2879,155.38424Z" fill="#eaa22f"/><path id="SVGCleanerId_0" data-name="SVGCleanerId 0" d="M256,140.49831a6.89593,6.89593,0,0,1-6.89562-6.89562V85.33333a6.89562,6.89562,0,0,1,13.79125,0v48.26936A6.89593,6.89593,0,0,1,256,140.49831Z" fill="#ffedb5"/><path d="M342.36939,171.3545a6.89562,6.89562,0,0,1-4.87521-11.77082l34.1316-34.13161a6.89458,6.89458,0,0,1,9.75042,9.75041l-34.1316,34.13161A6.86821,6.86821,0,0,1,342.36939,171.3545Z" fill="#fee187"/><path d="M405.29368,247.20806h0l-48.28143-.01207a6.89562,6.89562,0,0,1,.00174-13.79125h.00174l48.2797.01207a6.89562,6.89562,0,0,1-.00174,13.79125Z" fill="#fee187"/><path id="SVGCleanerId_0-2" data-name="SVGCleanerId 0" d="M256,140.49831a6.89593,6.89593,0,0,1-6.89562-6.89562V85.33333a6.89562,6.89562,0,0,1,13.79125,0v48.26936A6.89593,6.89593,0,0,1,256,140.49831Z" fill="#ffedb5"/><path d="M256.2879,78.467v62.002a6.8799,6.8799,0,0,0,6.60772-6.86632V85.33333A6.87992,6.87992,0,0,0,256.2879,78.467Z" fill="#fee187"/><path d="M169.6306,171.3545a6.87247,6.87247,0,0,1-4.87521-2.02041l-34.1316-34.12989a6.89458,6.89458,0,0,1,9.75041-9.75041l34.13161,34.13161a6.89389,6.89389,0,0,1-4.87521,11.7691Z" fill="#ffedb5"/><path d="M106.70631,247.20806a6.89562,6.89562,0,0,1-.00172-13.79125l48.2797-.01207h.00172a6.89562,6.89562,0,0,1,.00172,13.79125l-48.28143.01207Z" fill="#ffedb5"/><path d="M256,420.633a6.03419,6.03419,0,0,1-5.93887-4.9683L221.61668,257.06536a6.03437,6.03437,0,0,1,5.93887-7.099h56.88889a6.03437,6.03437,0,0,1,5.94058,7.099L261.94057,415.66468A6.03871,6.03871,0,0,1,256,420.633ZM234.76838,262.03366,256,380.42118l21.23161-118.38752Z" fill="#e09112"/><path d="M289.07141,252.1281a6.03216,6.03216,0,0,0-4.627-2.16177H256.28787v12.06734h20.94373L256.28787,378.8162v41.79093a6.02094,6.02094,0,0,0,5.651-4.94245l28.44444-158.59932A6.0292,6.0292,0,0,0,289.07141,252.1281Z" fill="#ff5419"/><path d="M256,426.66666h0a28.44376,28.44376,0,0,1-28.44444-28.44444V356.452h56.88889v41.77023A28.44376,28.44376,0,0,1,256,426.66666Z" fill="#fff"/><path d="M256.2879,356.452v70.20089a28.43735,28.43735,0,0,0,28.15654-28.43066V356.452Z" fill="#d0d1d3"/></svg>