<svg id="Layer_1" data-name="Layer 1" xmlns="http://www.w3.org/2000/svg" width="100%" height="auto" viewBox="0 0 512 512"><title>Maintenance</title><circle cx="255.996" cy="255.996" r="255.996" fill="#3a99d7"/><path d="M250.31454,511.925,128.4803,390.09071l101.791-110.56237L160.737,206.46282l88.00963-64.20813,51.74952,50.61684,68.21057-68.30062L511.72785,267.59208C505.66816,403.596,393.50081,512.001,256.001,512.001c-1.90216,0-3.79432-.029-5.68646-.072v-.004Z" fill="#2682bf"/><path d="M334.23068,163.34053,239.36687,274.6984,227.26151,264.179l94.86381-111.35387,1.98922-9.836L355.70578,113.275l13.00093,11.29689L343.68945,160.0005l-9.45877,3.345Z" fill="#ebecec"/><path d="M334.23068,163.34053,241.33707,272.386l-4.72589-6.74312L362.20372,118.92145l6.499,5.65045-25.01726,35.42859-9.45877,3.341h.004Z" fill="#e3e3e3"/><path d="M235.95378,283.17155l6.05268-6.96625a4.45073,4.45073,0,0,0-.43926-6.26181l-9.901-8.60323a4.45346,4.45346,0,0,0-6.26181.43926l-6.05268,6.96625a16.86635,16.86635,0,0,0-22.24755,2.8017l-77.187,88.83313a16.85351,16.85351,0,0,0,1.662,23.71144l13.81041,11.99831a16.8577,16.8577,0,0,0,23.71146-1.665l77.187-88.83313a16.86957,16.86957,0,0,0-.3312-22.42068h-.003Z" fill="#006775"/><path d="M235.95378,283.17155l6.05668-6.96625a4.451,4.451,0,0,0-.44227-6.26181l-4.949-4.30163L128.4843,390.09071l6.90921,6.00265a16.85751,16.85751,0,0,0,23.71146-1.665l77.187-88.83313a16.86183,16.86183,0,0,0-.3312-22.42068Z" fill="#004f59"/><path d="M331.24885,311.6129a45.16941,45.16941,0,0,1,46.93058,66.77867l-20.80168-27.959-28.6995,21.356,20.47448,27.51677a45.17908,45.17908,0,0,1-49.164-64.43126L210.9155,222.03829a56.3768,56.3768,0,0,1-61.97476-77.92048l32.31469,43.42747,43.0062-31.9945L191.94694,112.1203a56.37527,56.37527,0,0,1,56.82464,81.74781l82.48125,117.74476h-.004Z" fill="#ffd630"/><path d="M331.24885,311.61589a45.17279,45.17279,0,0,1,46.9296,66.78267l-20.80568-27.962L343.53335,360.7408,202.75455,171.55155l21.50311-15.99675L191.943,112.12433a56.37476,56.37476,0,0,1,56.82864,81.74381l82.48128,117.75175Z" fill="#f5be18"/></svg>