<svg id="Capa_1" data-name="Capa 1" xmlns="http://www.w3.org/2000/svg" width="100%" height="auto" viewBox="0 0 512 512"><title>Responsive Design</title><circle cx="256" cy="256" r="256" fill="#ff6838"/><path d="M97,349,259.95,511.95C399.511,509.836,512,396.064,512,256a256.35563,256.35563,0,0,0-8.584-65.918L415,101.667Z" fill="#ae4e32"/><polygon points="321.839 420.536 190.161 420.536 209.124 322.797 302.876 322.797 321.839 420.536" fill="#e0e0e0"/><polygon points="302.876 322.797 255.5 322.797 255.5 420.536 321.839 420.536 302.876 322.797" fill="silver"/><rect x="97" y="101.67" width="318" height="230.36998" fill="#1a1a1a"/><rect x="255.5" y="101.67" width="159.5" height="230.36998"/><rect x="112.19" y="113.48" width="287.63" height="223.71" fill="#b9eaff"/><rect x="255.5" y="113.48" width="144.31" height="223.71" fill="#35ccff"/><rect x="97" y="280.32999" width="318" height="68.67001" fill="#fff"/><rect x="255.5" y="280.32999" width="159.5" height="68.67001" fill="#e0e0e0"/><rect x="141.25" y="146" width="229.5" height="60.5" fill="#ff3f84"/><rect x="255.5" y="146" width="115.25" height="60.5" fill="#983262"/><circle cx="256" cy="307.67001" r="14" fill="#e0e0e0"/><path d="M256,293.667c-.169,0-.333.019-.5.025v27.949c.167.006.331.025.5.025a13.9995,13.9995,0,1,0,0-27.999Z" fill="silver"/><rect x="302.91" y="179.28999" width="119.80002" height="209.18999" fill="#333"/><rect x="362.5" y="179.28999" width="60.20999" height="209.18999" fill="#1a1a1a"/><rect x="315.51001" y="192.03" width="94.60999" height="163.72" fill="#b9eaff"/><rect x="362.5" y="192.03" width="47.617" height="163.72" fill="#35ccff"/><circle cx="362.81" cy="371.12" r="9.36899" fill="#e0e0e0"/><path d="M362.812,361.748c-.105,0-.208.012-.312.016V380.47c.104.003.207.016.312.016a9.369,9.369,0,1,0,0-18.738Z" fill="silver"/><rect x="330.81" y="209" width="64" height="43" fill="#ff3f84"/><rect x="362.5" y="209" width="32.31" height="43" fill="#983262"/></svg>