<svg id="Layer_1" data-name="Layer 1" xmlns="http://www.w3.org/2000/svg" width="100%" height="auto" viewBox="0 0 512 512"><title>SEO</title><circle cx="256" cy="256" r="256" fill="#006775"/><path d="M510.098,288.978l-93.86-93.86c-22.619-25.579-77.582-57.499-135.082-1.269l-27.482-26.424h-68.28v34.669l-22.197-23.253-43.97-7.187L97.876,203.152l51.369,54.117,6.342,49.89L118.17,268.896,86.672,312.232l198.5,198.5c116.902-13.318,209.916-105.064,224.924-221.542v-.212Z" fill="#055661"/><path d="M348.168,161.083h0v.211c-45.661,0-85.192,36.783-85.192,85.192a85.08178,85.08178,0,0,0,56.443,80.119,88.28737,88.28737,0,0,0,28.75,4.862c45.661,0,85.192-36.783,85.192-85.192C433.361,198.289,394.253,161.083,348.168,161.083Zm63.63,43.337a76.64026,76.64026,0,0,1,12.049,36.36h-15.22a87.148,87.148,0,0,0-8.456-32.344h-.211C403.977,207.167,407.993,205.9,411.798,204.42Zm-6.13-8.245a103.74791,103.74791,0,0,1-10.782,3.171,86.28217,86.28217,0,0,0-30.018-27.904A76.37328,76.37328,0,0,1,405.668,196.175Zm-33.401,54.963h27.482a79.60823,79.60823,0,0,1-6.553,26.424,198.09659,198.09659,0,0,0-22.831-4.228A188.29387,188.29387,0,0,0,372.267,251.138Zm-2.537-36.572a176.60222,176.60222,0,0,0,21.562-3.805,79.40826,79.40826,0,0,1,8.456,30.018H372.266A174.68931,174.68931,0,0,0,369.73,214.566Zm16.066-13.106a167.07241,167.07241,0,0,1-17.969,2.748,159.73012,159.73012,0,0,0-8.033-25.79A75.63867,75.63867,0,0,1,385.796,201.46Zm-26.213,13.741a198.22241,198.22241,0,0,1,2.325,25.368H335.484a191.65538,191.65538,0,0,1,2.325-25.156c3.171.211,6.342.211,9.513.211,4.016,0,8.033-.212,12.049-.423v.001h.212Zm-48.197-2.748h0c5.497,1.057,10.993,1.902,16.7,2.537a246.20528,246.20528,0,0,0-2.537,26.002H303.776a75.08606,75.08606,0,0,1,7.611-28.327l-.001-.212Zm14.163,38.897h0a188.90811,188.90811,0,0,0,1.902,21.986,155.80043,155.80043,0,0,0-17.757,2.748,79.95676,79.95676,0,0,1-5.919-24.733h21.774Zm3.382,32.131a151.36861,151.36861,0,0,0,7.187,25.156,78.80734,78.80734,0,0,1-21.773-23.254Q321.638,284.11549,328.931,283.481Zm1.057-78.639c-4.44-.423-8.878-1.057-13.106-1.691a78.1453,78.1453,0,0,1,19.448-19.66A166.88548,166.88548,0,0,0,329.988,204.842Zm9.726.211h0l.047.001a158.79756,158.79756,0,0,1,8.831-28.116,161.95461,161.95461,0,0,1,8.878,28.115c-3.383.211-6.765.211-10.147.211-2.521,0-5.042-.208-7.563-.21-.015.071-.032.14-.047.211v-.212Zm-3.595-34.456c1.057.211,2.325.423,3.382.634a87.06136,87.06136,0,0,0-31.921,30.018,141.88987,141.88987,0,0,1-17.546-4.862A75.509,75.509,0,0,1,336.119,170.597Zm-52.215,34.034a163.10016,163.10016,0,0,0,18.815,5.919,84.93864,84.93864,0,0,0-7.611,30.23H271.855A75.82538,75.82538,0,0,1,283.904,204.631Zm-12.049,46.507h23.253a85.91977,85.91977,0,0,0,6.131,26.635l-.212.211a170.55268,170.55268,0,0,0-19.237,6.131A72.53571,72.53571,0,0,1,271.855,251.138Zm64.053,70.394a76.511,76.511,0,0,1-48.621-28.961,152.15864,152.15864,0,0,1,18.18-5.285,86.1935,86.1935,0,0,0,33.823,33.612C338.233,321.109,336.964,321.321,335.908,321.532Zm12.472-6.975a164.84985,164.84985,0,0,1-9.68-32.134c-.014.001-.03.001-.044.003h0v-.212c.014.07.03.139.044.209,2.735-.208,5.677-.208,8.411-.208,3.594,0,7.399.211,10.993.211A167.35446,167.35446,0,0,1,348.38,314.557Zm-1.268-42.702c-3.383,0-6.765,0-10.147.211-.845-6.765-1.48-13.952-1.691-21.139h0v0h26.213a174.55418,174.55418,0,0,1-1.691,21.351C355.568,272.066,351.339,271.855,347.112,271.855Zm21.773,11.838a177.67188,177.67188,0,0,1,19.448,3.171,77.19889,77.19889,0,0,1-28.326,26.424A165.81055,165.81055,0,0,0,368.885,283.693Zm-3.804,36.782a85.13824,85.13824,0,0,0,32.132-31.497c3.805,1.057,7.611,2.325,11.204,3.593A76.32843,76.32843,0,0,1,365.081,320.475Zm36.782-40.587a86.90867,86.90867,0,0,0,6.976-28.75h15.22a75.4341,75.4341,0,0,1-10.147,32.977C409.896,282.636,405.88,281.156,401.863,279.888Z" fill="#00cc96"/><path d="M352.397,209.914a38.476,38.476,0,1,1-38.476,38.476A38.57465,38.57465,0,0,1,352.397,209.914Z" fill="#00cc96"/><path d="M439.068,370.366l-41.01-71.24a4.39844,4.39844,0,0,0-5.708-1.48l-1.691,1.057-6.342-10.782v.001h-.213a50.15881,50.15881,0,0,0,18.391-31.286,50.87121,50.87121,0,1,0-31.286,38.685l6.342,10.782-1.691,1.057a4.39844,4.39844,0,0,0-1.48,5.708l41.011,71.24a4.39844,4.39844,0,0,0,5.708,1.48l16.489-9.513A4.40022,4.40022,0,0,0,439.068,370.366ZM353.25,284.25a36.625,36.625,0,1,1,36.625-36.625A36.62556,36.62556,0,0,1,353.25,284.25Z" fill="#f7f7f8"/><path d="M329.142,241.837h0a2.38849,2.38849,0,0,1-2.748,2.114,2.47644,2.47644,0,0,1-1.902-2.325h0c0-.423.211-.846.211-1.48a28.62584,28.62584,0,0,1,32.766-23.464c.423,0,.846.211,1.269.211h.211a2.48273,2.48273,0,0,1,2.114,2.96,2.6331,2.6331,0,0,1-2.96,2.114h0a3.60484,3.60484,0,0,0-1.48-.211,23.61436,23.61436,0,0,0-27.059,19.237,1.60276,1.60276,0,0,1-.211.846h-.212v-.002Z" fill="#f7f7f8"/><path d="M392.562,297.433,377.553,306.1l-1.691,1.057a4.287,4.287,0,0,0-1.48,5.708l41.011,71.24a4.287,4.287,0,0,0,5.708,1.48l16.489-9.513a4.287,4.287,0,0,0,1.48-5.708l-41.01-71.24a4.10886,4.10886,0,0,0-5.285-1.691Z" fill="#e84f4f"/><path d="M390.447,298.702l1.691-1.057a4.39867,4.39867,0,0,1,5.708,1.48l41.011,71.24a4.39867,4.39867,0,0,1-1.48,5.708l-8.244,4.862-44.604-78.85Z" fill="#c94545"/><path d="M168.905,214.778v-6.342c0-12.684-1.269-21.773-3.805-27.059-2.537-5.285-7.399-9.724-15.009-13.318-7.611-3.382-16.7-5.285-27.693-5.285-9.935,0-18.18,1.48-25.368,4.862q-10.464,4.75651-15.22,13.318c-3.171,5.707-4.651,14.586-4.651,26.848,0,8.456,1.057,15.432,3.382,20.928a36.67369,36.67369,0,0,0,8.244,12.895c3.382,3.171,10.147,8.033,20.506,15.009,10.358,6.764,16.7,11.627,19.448,14.586q3.8055,4.44,3.805,18.391c0,4.228-.634,7.399-2.114,9.724a6.68157,6.68157,0,0,1-6.131,3.171q-4.122,0-5.708-2.537c-1.057-1.691-1.691-5.496-1.691-11.627V268.895H78.216v10.569c0,12.049,1.269,21.351,3.594,27.693,2.537,6.553,7.611,11.838,15.431,16.066s17.335,6.342,28.539,6.342c10.147,0,19.026-1.902,26.635-5.496,7.611-3.594,12.684-8.244,15.431-13.529,2.748-5.496,4.016-13.74,4.016-25.156,0-15.644-2.325-27.059-7.187-34.035s-16.489-16.066-34.88-27.059c-6.342-3.805-10.358-7.187-11.838-9.724-1.48-2.748-2.114-6.764-2.114-12.049,0-4.228.634-7.187,1.902-9.302a6.22706,6.22706,0,0,1,5.708-3.171c2.325,0,4.016.846,4.862,2.325,1.057,1.48,1.48,5.073,1.48,10.57v11.838h39.11v.001Zm16.7-48.621V326.183h72.297V294.262H227.25V258.958h26.002V228.517H227.25V197.865h27.693V165.944H185.605Z" fill="#00cc96"/></svg>