<svg xmlns="http://www.w3.org/2000/svg" viewBox="0 0 1278 277"><title>SEOsakht.IR</title><g id="Layer_1" data-name="Layer 1"><path d="M147.92432,201.50879q0-14.13281-10.02539-22.10449-10.02612-7.97021-35.33447-16.43555-25.311-8.4624-41.41553-16.35156Q8.88623,120.978,8.88623,76.11133q0-22.34912,13.06543-39.44336,13.06567-17.09106,36.814-26.62451Q82.51294.51392,112.26074.51123q29.0896,0,52.01611,10.354,22.927,10.35352,35.66357,29.50049Q212.675,59.51343,212.67725,84H148.08887q0-16.43188-10.02539-25.47412Q128.03662,49.49,110.78174,49.48682q-17.25659,0-27.36377,7.64209Q73.31055,64.77173,73.31055,76.60449q0,10.35352,11.09326,18.73535,11.094,8.38184,38.95068,17.33887,27.85693,8.95972,45.77051,19.311,43.5498,25.14478,43.55225,69.18994,0,35.33789-26.542,55.38574-26.5437,20.05225-72.88818,20.0498-32.707,0-59.16553-11.668-26.4624-11.66895-39.854-32.04883Q.83008,212.52246.833,185.89551H65.75049q0,21.53174,11.17578,31.80176,11.17383,10.27148,36.3208,10.27148,16.10449,0,25.3916-6.90234Q147.92212,214.16406,147.92432,201.50879Z" fill="#221f1f"/><path d="M412.68652,159.10742H310.791v64.0957H431.09375V273H246.03809V4.2915H431.42285V54.25293H310.791v56.7002H412.68652Z" fill="#221f1f"/><path d="M809.46484,240.88281q0-7.9834-5.61719-12.30664-5.61768-4.32422-20.21484-8.72168-14.59863-4.39746-23.24609-9.79395-16.48242-10.34619-16.48242-27.05176,0-14.63525,11.90039-24.0957,11.89893-9.46,30.89551-9.46094A52.13471,52.13471,0,0,1,809.207,154.1084,37.01872,37.01872,0,0,1,824.72852,167.376a33.94909,33.94909,0,0,1,5.6543,19.03223h-20.918q0-9.46-5.94922-14.81934-5.9502-5.3584-16.96289-5.3584-10.27441,0-15.96582,4.39746-5.69238,4.39893-5.69141,12.30664,0,6.65186,6.13477,11.08691,6.13477,4.43555,20.25293,8.61133,14.11523,4.17627,22.6543,9.53418,8.53711,5.35986,12.52734,12.30664a32.07728,32.07728,0,0,1,3.99219,16.26074q0,15.0791-11.56836,23.98535-11.56787,8.90771-31.44922,8.90625a59.2267,59.2267,0,0,1-24.0957-4.84082,40.40122,40.40122,0,0,1-17.11133-13.37891,33.38218,33.38218,0,0,1-6.09766-19.91895H761.126q0,10.27441,6.7998,15.92773,6.7998,5.6543,19.51367,5.6543,10.93652,0,16.48242-4.43457A14.30092,14.30092,0,0,0,809.46484,240.88281Z" fill="#221f1f"/><path d="M916.49023,243.83887H869.70313L859.94629,272H838.06836l45.67773-120.84766h18.84766L948.34668,272H926.39453Zm-40.875-16.92578h35.03516L893.13281,176.7998Z" fill="#221f1f"/><path d="M996.75879,219.81738l-13.748,14.4873V272H962.01953V151.15234h20.99121v56.69141l11.67871-14.33984,35.33008-42.35156h25.42578l-44.93848,53.5127L1057.959,272h-24.835Z" fill="#221f1f"/><path d="M1165.13281,272h-20.918V218.26563h-54.03027V272h-20.99121V151.15234h20.99121v50.26074h54.03027V151.15234h20.918Z" fill="#221f1f"/><path d="M1277.332,168.07813h-37.69531V272H1218.793V168.07813H1181.4668V151.15234H1277.332Z" fill="#221f1f"/></g><g id="Layer_2" data-name="Layer 2"><path d="M516.15615,118.48157l53.32541,92.36228,35.35469,61.2361A135.11412,135.11412,0,0,1,454.92,153.83626Z" fill="#fbbc05" stroke="#fff" stroke-miterlimit="10" stroke-width="2"/><path d="M516.15615,118.48157l92.36228-53.32541L573.16374,3.92006A135.11412,135.11412,0,0,0,454.92,153.83626Z" fill="#ea4335" stroke="#fff" stroke-miterlimit="10" stroke-width="2"/><path d="M608.51843,65.15616l53.32541,92.36228,61.2361-35.35469A135.11412,135.11412,0,0,0,573.16374,3.92006Z" fill="#34a853" stroke="#fff" stroke-miterlimit="10" stroke-width="2"/><path d="M604.83625,272.07995l-35.35469-61.2361,92.36228-53.32541,61.2361-35.35469a135.11412,135.11412,0,0,1-118.24369,149.9162Z" fill="#4285f4" stroke="#fff" stroke-miterlimit="10" stroke-width="2"/></g></svg>