<svg id="Layer_1" data-name="Layer 1" xmlns="http://www.w3.org/2000/svg" width="226" height="48" viewBox="0 0 226 48"><title>SEOsakht.IR-logo</title><rect x="69.32373" y="2.21191" width="44" height="44" fill="none"/><rect x="82.99575" y="15.88394" width="16.65596" height="16.65596" transform="translate(0.12911 48.90566) rotate(-30.00001)" fill="#fff"/><path d="M79.9475,21.16366l8.328,14.42448,5.52144,9.56342A21.10116,21.10116,0,0,1,70.38408,26.68511Z" fill="#fbbc05" stroke="#fff" stroke-miterlimit="10"/><path d="M79.9475,21.16366l14.42448-8.328L88.85054,3.27227A21.10116,21.10116,0,0,0,70.38408,26.68511Z" fill="#ea4335" stroke="#fff" stroke-miterlimit="10"/><path d="M94.372,12.83568,102.7,27.26016l9.56342-5.52144A21.10116,21.10116,0,0,0,88.85054,3.27227Z" fill="#34a853" stroke="#fff" stroke-miterlimit="10"/><path d="M93.79692,45.15156l-5.52144-9.56342L102.7,27.26016l9.56342-5.52144A21.10116,21.10116,0,0,1,93.79692,45.15156Z" fill="#4285f4" stroke="#fff" stroke-miterlimit="10"/><path d="M128.01758,38.43848a2.56361,2.56361,0,0,0-.99707-2.166,12.9354,12.9354,0,0,0-3.585-1.5957,25.1664,25.1664,0,0,1-4.09473-1.64844q-4.125-2.23242-4.125-6.002a5.83949,5.83949,0,0,1,1.10156-3.48828,7.17971,7.17971,0,0,1,3.1709-2.40234,11.92189,11.92189,0,0,1,4.6416-.86523,10.862,10.862,0,0,1,4.6123.93848,7.35822,7.35822,0,0,1,3.14844,2.6543,6.93318,6.93318,0,0,1,1.124,3.8877h-4.98242a3.26036,3.26036,0,0,0-1.042-2.58691,4.32059,4.32059,0,0,0-2.94922-.917,4.595,4.595,0,0,0-2.83008.76855,2.43393,2.43393,0,0,0-1.0127,2.04,2.327,2.327,0,0,0,1.18945,1.9668,13.40832,13.40832,0,0,0,3.49609,1.49219,15.17467,15.17467,0,0,1,6.18652,3.17871,6.31307,6.31307,0,0,1,1.94434,4.71582,5.80535,5.80535,0,0,1-2.373,4.915,10.40567,10.40567,0,0,1-6.39355,1.78125,12.37108,12.37108,0,0,1-5.085-1.01953A8.0504,8.0504,0,0,1,115.667,41.292a7.1362,7.1362,0,0,1-1.20508-4.11035h5.01172q0,3.9917,4.77441,3.99121a4.68019,4.68019,0,0,0,2.77246-.7168A2.33937,2.33937,0,0,0,128.01758,38.43848Z" fill="#333"/><path d="M150.0293,39.79883H141.292l-1.65527,4.98145h-5.292l9.00293-24.16992H147.959l9.04785,24.16992h-5.292Zm-7.3916-4.03613h6.0459l-3.03027-9.04687Z" fill="#333"/><path d="M166.83594,35.083,164.249,37.877v6.90332h-4.98145V20.61035H164.249v10.9541l2.18848-3.001,6.16406-7.95312h6.12012l-8.57422,10.73242,8.8252,13.4375h-5.92773Z" fill="#333"/><path d="M200.52637,44.78027h-4.98145V34.418H185.832v10.3623h-4.98145V20.61035H185.832v9.78613h9.71289V20.61035h4.98145Z" fill="#333"/><path d="M223.06934,24.64648h-7.40625V44.78027h-4.98145V24.64648h-7.30273V20.61035h19.69043Z" fill="#333"/><path d="M26.71191,34.01172a4.18709,4.18709,0,0,0-1.67773-3.56641,21.92489,21.92489,0,0,0-6.0293-2.62988,42.88262,42.88262,0,0,1-6.88623-2.71484q-6.93677-3.67676-6.93652-9.88574A9.48522,9.48522,0,0,1,7.03418,9.46924a12.05932,12.05932,0,0,1,5.333-3.95654,20.4389,20.4389,0,0,1,7.80664-1.42432,18.582,18.582,0,0,1,7.75635,1.5459,12.32274,12.32274,0,0,1,5.29541,4.37061,11.252,11.252,0,0,1,1.88965,6.40332H26.73682a5.31991,5.31991,0,0,0-1.75244-4.26074,7.37547,7.37547,0,0,0-4.96-1.50977,7.84408,7.84408,0,0,0-4.76074,1.2666,3.98217,3.98217,0,0,0-1.70312,3.35938A3.81811,3.81811,0,0,0,15.562,18.502a22.73358,22.73358,0,0,0,5.87939,2.459q7.13525,2.11963,10.40479,5.23535a10.29257,10.29257,0,0,1,3.269,7.7666,9.49342,9.49342,0,0,1-3.99023,8.0957q-3.99023,2.93408-10.75244,2.93457a21.17368,21.17368,0,0,1-8.55225-1.68066,13.4794,13.4794,0,0,1-5.87988-4.60156,11.582,11.582,0,0,1-2.02588-6.76855h8.42773q0,6.57422,8.03027,6.57422A7.99175,7.99175,0,0,0,25.03418,37.335,3.82815,3.82815,0,0,0,26.71191,34.01172Z" fill="#333"/><path d="M65.24658,27.19434H49.16113V37.8584H68.03125V44.457H40.7832V4.64844H67.98145v6.64648H49.16113V20.7666H65.24658Z" fill="#333"/></svg>