<svg id="Layer_1" data-name="Layer 1" xmlns="http://www.w3.org/2000/svg" width="100%" height="auto" viewBox="0 0 451.27701 451.27701"><title>SSL</title><circle cx="225.64" cy="225.64" r="225.64" fill="#45b39c"/><path d="M444.558,280.446l-166.57-166.57-1.598-1.598a72.90843,72.90843,0,0,0-123.736,52.325v38.033H141.888a15.44935,15.44935,0,0,0-15.467,15.467V344.189a15.262,15.262,0,0,0,4.372,10.719l.517.517,95.806,95.835C332.182,450.581,420.182,378.121,444.558,280.446Z" opacity="0.1" style="isolation:isolate"/><path d="M309.4,212.044H141.877A15.45678,15.45678,0,0,0,126.421,227.5V344.167a15.45614,15.45614,0,0,0,15.456,15.456H309.4a15.45592,15.45592,0,0,0,15.455-15.456V227.5A15.4559,15.4559,0,0,0,309.4,212.044Z" fill="#dc8744"/><path d="M272.568,164.618v38.023h26.034V164.618a73.04726,73.04726,0,0,0-72.964-72.964v26.034A46.98094,46.98094,0,0,1,272.568,164.618Z" fill="#3a556a"/><path d="M178.709,202.642V164.619a46.98139,46.98139,0,0,1,46.929-46.93V91.654a73.047,73.047,0,0,0-72.963,72.964v38.023h26.034Z" fill="#64798a"/><path d="M309.4,202.642H225.638V350.22H309.4a15.45592,15.45592,0,0,0,15.455-15.456V218.097A15.455,15.455,0,0,0,309.4,202.642Z" fill="#f6c358"/><path d="M178.711,202.642H141.877a15.45678,15.45678,0,0,0-15.456,15.456V334.765a15.45614,15.45614,0,0,0,15.456,15.456h83.761V202.642Z" fill="#fcd462"/><path d="M243.305,253.907a17.66705,17.66705,0,1,0-27.117,14.882l-5.269,25.104h29.436l-5.268-25.104A17.61125,17.61125,0,0,0,243.305,253.907Z" fill="#dc8744"/></svg>